<svg width="80" height="80" viewBox="0 0 80 80" fill="none" xmlns="http://www.w3.org/2000/svg">
<ellipse cx="39.5249" cy="45.7137" rx="35" ry="33.3333" fill="white"/>
<path d="M80 40.0414C80 62.1081 62.0901 80 39.9958 80C17.9035 80 0 62.108 0 40.0414C0 23.1034 10.5434 8.63255 25.4336 2.81703C29.9326 1.00223 34.8478 0 39.9968 0C45.1522 0 50.0631 1.00122 54.5664 2.81703C69.4557 8.63255 80 23.1035 80 40.0414ZM24.6221 31.6144C24.6221 38.3482 28.0726 44.1784 33.0885 47.0322C35.1687 48.2158 37.5109 48.8983 39.9958 48.8983C42.3935 48.8983 44.6541 48.2599 46.6798 47.1569C51.8142 44.3577 55.3759 38.4562 55.3759 31.6155C55.3759 22.0907 48.478 14.3379 39.9959 14.3379C31.5189 14.3369 24.6221 22.0898 24.6221 31.6144ZM40.1583 77.4106C51.8445 77.4106 62.2694 72.0365 69.1022 63.6263C68.295 56.992 61.83 51.3443 52.6802 48.5272C49.2244 51.6357 44.8093 53.5061 39.9947 53.5061C35.0732 53.5061 30.568 51.5351 27.0787 48.2913C18.1782 50.8315 11.6589 56.0128 10.1303 62.2214C16.9106 71.4315 27.8388 77.4106 40.1583 77.4106Z" fill="#D3D6E7"/>
</svg>
